<svg xmlns="http://www.w3.org/2000/svg" version="1.1" xmlns:xlink="http://www.w3.org/1999/xlink" xmlns:svgjs="http://svgjs.dev/svgjs" viewBox="0 0 800 800"><defs><linearGradient x1="50%" y1="0%" x2="50%" y2="100%" id="ffflurry-grad" gradientTransform="rotate(270)"><stop stop-color="hsl(286, 68%, 5%)" stop-opacity="1" offset="0%"></stop><stop stop-color="hsl(105, 69%, 40%)" stop-opacity="1" offset="45%"></stop><stop stop-color="hsl(105, 69%, 60%)" stop-opacity="1" offset="100%"></stop></linearGradient></defs><rect width="100%" height="100%" fill="hsl(286, 68%, 5%)"></rect><g fill="url(#ffflurry-grad)"><rect width="713" height="2" x="187.5" y="459" rx="1" transform="rotate(35, 544, 460)" opacity="0.56"></rect><rect width="715" height="2" x="-5.5" y="433" rx="1" transform="rotate(35, 352, 434)" opacity="0.94"></rect><rect width="431" height="2" x="280.5" y="181" rx="1" transform="rotate(35, 496, 182)" opacity="0.55"></rect><rect width="988" height="2" x="95" y="102" rx="1" transform="rotate(35, 589, 103)" opacity="0.60"></rect><rect width="776" height="2" x="-336" y="334" rx="1" transform="rotate(35, 52, 335)" opacity="0.59"></rect><rect width="881" height="2" x="284.5" y="225" rx="1" transform="rotate(35, 725, 226)" opacity="0.47"></rect><rect width="380" height="2" x="272" y="45" rx="1" transform="rotate(35, 462, 46)" opacity="0.32"></rect><rect width="306" height="2" x="-92" y="677" rx="1" transform="rotate(35, 61, 678)" opacity="0.80"></rect><rect width="812" height="2" x="-136" y="101" rx="1" transform="rotate(35, 270, 102)" opacity="0.25"></rect><rect width="557" height="2" x="217.5" y="701" rx="1" transform="rotate(35, 496, 702)" opacity="0.85"></rect><rect width="344" height="2" x="119" y="303" rx="1" transform="rotate(35, 291, 304)" opacity="0.99"></rect><rect width="471" height="2" x="164.5" y="769" rx="1" transform="rotate(35, 400, 770)" opacity="0.65"></rect><rect width="442" height="2" x="504" y="406" rx="1" transform="rotate(35, 725, 407)" opacity="0.26"></rect><rect width="166" height="2" x="-3" y="24" rx="1" transform="rotate(35, 80, 25)" opacity="0.50"></rect><rect width="293" height="2" x="256.5" y="258" rx="1" transform="rotate(35, 403, 259)" opacity="0.53"></rect><rect width="470" height="2" x="-129" y="103" rx="1" transform="rotate(35, 106, 104)" opacity="0.25"></rect><rect width="673" height="2" x="382.5" y="69" rx="1" transform="rotate(35, 719, 70)" opacity="0.92"></rect><rect width="263" height="2" x="552.5" y="734" rx="1" transform="rotate(35, 684, 735)" opacity="0.29"></rect><rect width="205" height="2" x="174.5" y="719" rx="1" transform="rotate(35, 277, 720)" opacity="0.82"></rect><rect width="998" height="2" x="-88" y="560" rx="1" transform="rotate(35, 411, 561)" opacity="0.11"></rect><rect width="443" height="2" x="-49.5" y="299" rx="1" transform="rotate(35, 172, 300)" opacity="0.67"></rect><rect width="397" height="2" x="-10.5" y="461" rx="1" transform="rotate(35, 188, 462)" opacity="0.88"></rect><rect width="970" height="2" x="-390" y="194" rx="1" transform="rotate(35, 95, 195)" opacity="0.22"></rect><rect width="1066" height="2" x="-170" y="134" rx="1" transform="rotate(35, 363, 135)" opacity="0.84"></rect><rect width="1204" height="2" x="119" y="573" rx="1" transform="rotate(35, 721, 574)" opacity="0.28"></rect><rect width="267" height="2" x="-108.5" y="86" rx="1" transform="rotate(35, 25, 87)" opacity="0.51"></rect><rect width="734" height="2" x="-208" y="749" rx="1" transform="rotate(35, 159, 750)" opacity="0.48"></rect><rect width="605" height="2" x="-114.5" y="607" rx="1" transform="rotate(35, 188, 608)" opacity="0.47"></rect><rect width="132" height="2" x="123" y="51" rx="1" transform="rotate(35, 189, 52)" opacity="0.78"></rect><rect width="327" height="2" x="325.5" y="337" rx="1" transform="rotate(35, 489, 338)" opacity="0.96"></rect><rect width="571" height="2" x="324.5" y="293" rx="1" transform="rotate(35, 610, 294)" opacity="0.44"></rect><rect width="824" height="2" x="-350" y="495" rx="1" transform="rotate(35, 62, 496)" opacity="0.53"></rect><rect width="69" height="2" x="543.5" y="603" rx="1" transform="rotate(35, 578, 604)" opacity="0.93"></rect><rect width="149" height="2" x="213.5" y="563" rx="1" transform="rotate(35, 288, 564)" opacity="0.09"></rect><rect width="710" height="2" x="19" y="679" rx="1" transform="rotate(35, 374, 680)" opacity="0.47"></rect></g></svg>